<svg xmlns="http://www.w3.org/2000/svg" xmlns:xlink="http://www.w3.org/1999/xlink" width="48" height="48" viewBox="0 0 48 48">
    <defs>
        <path id="a" d="M0 0h23.818v23.818H0z"/>
    </defs>
    <g fill="none" fill-rule="evenodd" transform="translate(12 12)">
        <mask id="b" fill="#fff">
            <use xlink:href="#a"/>
        </mask>
        <path fill="#3F44E1" d="M19.306 23.507l.556-1.113c.183-.366.232-.812.136-1.226L17.382 9.926c2.184-1.984 3.801-3.492 4.326-4.016l1.187-1.188c.977-.977 1.206-2.34.554-3.52 0 0-.133-.257-.355-.479a2.172 2.172 0 0 0-.479-.354c-1.18-.652-2.543-.423-3.52.554L17.909 2.11c-.524.524-2.032 2.142-4.016 4.325L2.65 3.82a1.848 1.848 0 0 0-1.227.136l-1.112.556c-.194.096-.197.323-.006.423l9.592 5.948a402.122 402.122 0 0 0-6.152 7.08l-1.04.042-2.28.093c-.34.013-.556.44-.335.662l3.025 1.943 1.943 3.025c.221.221.648.006.662-.334l.093-2.282.042-1.04a405.288 405.288 0 0 0 7.08-6.151l5.947 9.592c.101.19.327.188.424-.006" mask="url(#b)"/>
    </g>
</svg>
