<svg xmlns="http://www.w3.org/2000/svg" width="48" height="48" viewBox="0 0 48 48">
    <g fill="none" fill-rule="evenodd">
        <path fill="#3F44E1" d="M23.965 10l-9.487 5.116 9.487 5.116 9.487-5.116zM14 26.351l9.487 5.116V21.01L14 15.894zM24.358 21.01v10.457l9.487-5.115V15.894zM30.59 37.988h-1.242c-.175-1.141-1.14-2.022-2.297-2.022h-6.4c-1.157 0-2.121.881-2.296 2.022h-1.241a.364.364 0 0 0-.359.368c0 .204.16.369.359.369H30.589a.363.363 0 0 0 .359-.369.364.364 0 0 0-.359-.368"/>
        <path stroke="#3F44E1" stroke-linecap="round" stroke-width=".8" d="M14.964 28.066l.1.173"/>
        <path stroke="#3F44E1" stroke-dasharray="0.3779999971389771,1.511999988555908" stroke-linecap="round" stroke-width=".8" d="M15.817 29.55l2.45 4.26"/>
        <path stroke="#3F44E1" stroke-linecap="round" stroke-width=".8" d="M18.644 34.466l.1.174M32.545 28.074l-.1.174"/>
        <path stroke="#3F44E1" stroke-dasharray="0.3779999971389771,1.511999988555908" stroke-linecap="round" stroke-width=".8" d="M31.692 29.559l-2.45 4.26"/>
        <path stroke="#3F44E1" stroke-linecap="round" stroke-width=".8" d="M28.865 34.475l-.1.174M23.922 32.935v.201"/>
        <path stroke="#3F44E1" stroke-dasharray="0.4423999786376953,1.769199943542481" stroke-linecap="round" stroke-width=".8" d="M23.922 34.918v1.335"/>
        <path stroke="#3F44E1" stroke-linecap="round" stroke-width=".8" d="M23.922 37.144v.202"/>
    </g>
</svg>
