<svg xmlns="http://www.w3.org/2000/svg" xmlns:xlink="http://www.w3.org/1999/xlink" width="48" height="48" viewBox="0 0 48 48">
    <defs>
        <path id="a" d="M0 .369h25.855v13.22H0z"/>
    </defs>
    <g fill="none" fill-rule="evenodd">
        <g transform="translate(11 17.043)">
            <mask id="b" fill="#fff">
                <use xlink:href="#a"/>
            </mask>
            <path fill="#3F44E1" d="M23.552 13.588H2.303C1.036 13.588 0 12.538 0 11.254v-8.55C0 1.418 1.036.368 2.303.368h21.249c1.267 0 2.303 1.05 2.303 2.334v8.551c0 1.284-1.036 2.334-2.303 2.334" mask="url(#b)"/>
        </g>
        <path fill="#FFF" d="M18.997 27.648H16.37a.35.35 0 0 1-.347-.352v-.994a.35.35 0 0 1 .347-.352h2.626a.35.35 0 0 1 .347.352v.994a.35.35 0 0 1-.347.352M23.16 27.648h-2.626a.35.35 0 0 1-.347-.352v-.994a.35.35 0 0 1 .347-.352h2.626a.35.35 0 0 1 .346.352v.994a.35.35 0 0 1-.346.352M27.322 27.648h-2.626a.35.35 0 0 1-.347-.352v-.994a.35.35 0 0 1 .347-.352h2.626a.35.35 0 0 1 .347.352v.994a.35.35 0 0 1-.347.352M31.485 27.648h-2.626a.35.35 0 0 1-.347-.352v-.994a.35.35 0 0 1 .347-.352h2.626a.35.35 0 0 1 .347.352v.994a.35.35 0 0 1-.347.352M33.278 24.022c-1.053 0-1.906-.865-1.906-1.932s.853-1.932 1.906-1.932 1.906.865 1.906 1.932-.853 1.932-1.906 1.932M14.577 24.022c-1.053 0-1.905-.865-1.905-1.932s.852-1.932 1.905-1.932 1.906.865 1.906 1.932-.853 1.932-1.906 1.932M29.293 23.55h-10.73a.584.584 0 0 1-.579-.586v-1.748c0-.323.26-.586.578-.586h10.73c.319 0 .579.263.579.586v1.748c0 .322-.26.586-.578.586"/>
    </g>
</svg>
