<svg xmlns="http://www.w3.org/2000/svg" xmlns:xlink="http://www.w3.org/1999/xlink" width="48" height="48" viewBox="0 0 48 48">
    <defs>
        <path id="a" d="M0 .2h15.188v16.734H0z"/>
        <path id="c" d="M.052.367h11.91v8.737H.052z"/>
    </defs>
    <g fill="none" fill-rule="evenodd">
        <g transform="translate(10 15.197)">
            <mask id="b" fill="#fff">
                <use xlink:href="#a"/>
            </mask>
            <path fill="#3F44E1" d="M14.638 16.371a.723.723 0 0 1-.899.537c-1.674-.447-5.877-1.816-9.058-4.918C1.417 8.806.315 3.116.007 1.002A.71.71 0 0 1 .75.2C3.062.287 9.53.82 12.83 4.04c3.373 3.29 2.277 10.112 1.808 12.331" mask="url(#b)"/>
        </g>
        <g transform="translate(25.826 24.697)">
            <mask id="d" fill="#fff">
                <use xlink:href="#c"/>
            </mask>
            <path fill="#3F44E1" d="M11.446.42a.543.543 0 0 1 .507.63c-.197 1.085-.897 3.468-3.337 5.134C6.426 7.68 2.484 8.692.732 9.09c-.41.094-.772-.274-.659-.67.43-1.512 1.506-4.646 3.423-6.357C5.592.192 9.886.31 11.446.421" mask="url(#d)"/>
        </g>
        <path fill="#3F44E1" d="M36.458 16.677a.355.355 0 0 1 .319.522c-.648 1.185-2.45 4.165-5.01 5.914-1.915 1.307-3.486 3.334-4.322 4.543-.203.294-.675.153-.673-.202.012-2.257.276-7.04 2.225-8.78 2.074-1.849 5.985-2.007 7.461-1.997"/>
        <path fill="#FFF" d="M23.83 27.642s-1.29-4.41-4.945-7.605c-3.654-3.195-8.289-3.965-8.289-3.965s5.123.238 8.778 3.433c3.654 3.195 4.456 8.137 4.456 8.137M36.128 25.787s-2.766.43-5.285 2.182c-2.52 1.752-3.837 4.162-3.837 4.162s1.106-2.7 3.625-4.452c2.52-1.752 5.497-1.892 5.497-1.892"/>
    </g>
</svg>
