<svg xmlns="http://www.w3.org/2000/svg" xmlns:xlink="http://www.w3.org/1999/xlink" width="48" height="48" viewBox="0 0 48 48">
    <defs>
        <path id="a" d="M0 .142h23.73v18.454H0z"/>
    </defs>
    <g fill="none" fill-rule="evenodd">
        <g transform="translate(12 14.262)">
            <mask id="b" fill="#fff">
                <use xlink:href="#a"/>
            </mask>
            <path fill="#3F44E1" d="M20.301.142H3.428C1.543.142 0 1.675 0 3.55v8.78c0 1.875 1.543 3.407 3.428 3.407h7.778c.341 0 .596.314.525.646l-.339 1.567a.536.536 0 0 0 .736.603l6.534-2.773a.54.54 0 0 1 .211-.043h1.428c1.886 0 3.428-1.532 3.428-3.406V3.549c0-1.874-1.542-3.407-3.428-3.407" mask="url(#b)"/>
        </g>
        <path fill="#FFF" d="M22.116 23.121l-1.034-2.694a8.851 8.851 0 0 1-.288-.88 7.708 7.708 0 0 1-.29.89l-1.052 2.684h2.664zm-3.661 2.685a.362.362 0 0 1-.363.26.65.65 0 0 1-.187-.028c-.186-.046-.326-.204-.326-.38 0-.055.01-.101.028-.157l2.534-6.324c.12-.314.354-.435.643-.435.298 0 .54.12.662.435l2.534 6.342a.328.328 0 0 1 .037.158c0 .185-.149.324-.335.37a.544.544 0 0 1-.168.028.388.388 0 0 1-.382-.26l-.736-1.916h-3.223l-.718 1.907zM26.03 24.89c0 .213.113.315.299.315h1.379c1.51 0 2.394-1.065 2.394-2.87 0-1.769-.829-2.742-2.366-2.742H26.34c-.178 0-.308.112-.308.306v4.991zm-.884-5.092c0-.713.289-1 .95-1h1.658c2.06 0 3.27 1.296 3.27 3.527 0 2.306-1.229 3.685-3.27 3.685h-1.658c-.661 0-.95-.287-.95-.99v-5.222z"/>
    </g>
</svg>
