<svg xmlns="http://www.w3.org/2000/svg" width="48" height="48" viewBox="0 0 48 48">
    <g fill="#3F44E1" fill-rule="evenodd">
        <path d="M31.75 19.877l-7.885-4.235-7.885 4.235 7.885 4.235zM15.583 20.52v8.658l7.885 4.235v-8.657zM24.192 33.413v-8.657l7.885-4.235v8.657zM16.575 11.74a.334.334 0 0 0-.33-.337H11.33a.334.334 0 0 0-.33.337v5.029c0 .186.148.337.33.337.182 0 .33-.151.33-.337v-4.354c0-.186.147-.337.33-.337h4.255c.182 0 .33-.151.33-.338M36.33 17.106c.182 0 .33-.15.33-.337V11.74a.334.334 0 0 0-.33-.337h-4.916a.333.333 0 0 0-.33.337c0 .187.148.338.33.338h4.256c.182 0 .33.15.33.337v4.354c0 .186.148.337.33.337M31.084 37.314c0 .187.148.338.33.338h4.916c.182 0 .33-.151.33-.338v-5.028a.333.333 0 0 0-.33-.337.334.334 0 0 0-.33.337v4.353a.333.333 0 0 1-.33.338h-4.256a.334.334 0 0 0-.33.337M11.33 31.949a.334.334 0 0 0-.33.337v5.028c0 .187.148.338.33.338h4.915c.182 0 .33-.151.33-.338a.334.334 0 0 0-.33-.337H11.99a.333.333 0 0 1-.33-.337v-4.354a.334.334 0 0 0-.33-.337"/>
    </g>
</svg>
