<svg xmlns="http://www.w3.org/2000/svg" xmlns:xlink="http://www.w3.org/1999/xlink" width="48" height="48" viewBox="0 0 48 48">
    <defs>
        <path id="a" d="M0 .242h27.792V15.48H0z"/>
    </defs>
    <g fill="none" fill-rule="evenodd">
        <path fill="#3F44E1" d="M34.12 30.23c0-1.397-1.117-2.53-2.494-2.53-1.377 0-2.493 1.133-2.493 2.53 0 1.396 1.116 2.529 2.493 2.529 1.377 0 2.494-1.133 2.494-2.53M19.793 30.23c0-1.397-1.116-2.53-2.493-2.53-1.378 0-2.494 1.133-2.494 2.53 0 1.396 1.116 2.529 2.494 2.529 1.377 0 2.493-1.133 2.493-2.53"/>
        <g transform="translate(10 15.159)">
            <mask id="b" fill="#fff">
                <use xlink:href="#a"/>
            </mask>
            <path fill="#3F44E1" d="M24.103.241h-19.5C1.266.241 0 6.361 0 7.59v6.466c0 .787.629 1.425 1.405 1.425H4.1a3.348 3.348 0 0 1-.028-.41c0-1.813 1.45-3.283 3.238-3.283s3.237 1.47 3.237 3.284c0 .138-.01.274-.027.41h7.896a3.348 3.348 0 0 1-.028-.41c0-1.814 1.45-3.284 3.238-3.284s3.237 1.47 3.237 3.284c0 .138-.01.274-.027.41h1.551c.776 0 1.405-.639 1.405-1.426V3.983c0-2.058-1.66-3.742-3.69-3.742" mask="url(#b)"/>
        </g>
        <path fill="#FFF" d="M18.509 16.997v4.309c0 .344.275.623.614.623h4.416c.34 0 .615-.28.615-.623v-4.309a.619.619 0 0 0-.615-.623h-4.416c-.34 0-.614.28-.614.623M15.054 16.374c-2.015 0-2.944 2.245-3.495 4.592a.777.777 0 0 0 .745.963h5.222v-4.931a.62.62 0 0 0-.616-.624h-1.856zM25.137 16.997v4.31c0 .343.275.622.614.622h4.417c.34 0 .614-.28.614-.623v-4.31a.618.618 0 0 0-.614-.622h-4.417a.618.618 0 0 0-.614.623M33.707 16.374h-1.324a.623.623 0 0 0-.618.627v4.3c0 .347.277.628.618.628h3.104c.765 0 1.385-.629 1.385-1.404v-.603c0-1.951-.778-3.548-3.165-3.548"/>
    </g>
</svg>
