<svg xmlns="http://www.w3.org/2000/svg" xmlns:xlink="http://www.w3.org/1999/xlink" width="48" height="48" viewBox="0 0 48 48">
    <defs>
        <path id="a" d="M0 .063h14.422v3.07H0z"/>
        <path id="c" d="M.335.167h14.422v3.07H.335z"/>
    </defs>
    <g fill="none" fill-rule="evenodd">
        <g transform="translate(5 18.351)">
            <mask id="b" fill="#fff">
                <use xlink:href="#a"/>
            </mask>
            <path fill="#3F44E1" d="M14.422 2.115S12.15 1.4 9.07 1.169C8.88.563 8.583.063 8.045.063H6.378c-.539 0-.836.5-1.025 1.106C2.273 1.4 0 2.115 0 2.115S3.229 3.133 7.21 3.133c3.983 0 7.211-1.018 7.211-1.018" mask="url(#b)"/>
        </g>
        <g transform="translate(28.043 18.351)">
            <mask id="d" fill="#fff">
                <use xlink:href="#c"/>
            </mask>
            <path fill="#3F44E1" d="M14.757 2.219s-2.273-.714-5.354-.946C9.215.668 8.918.167 8.38.167H6.713c-.539 0-.836.501-1.025 1.106-3.08.232-5.353.946-5.353.946s3.228 1.019 7.21 1.019c3.983 0 7.212-1.02 7.212-1.02" mask="url(#d)"/>
        </g>
        <path fill="#3F44E1" d="M36.62 22.25h-2.064c-1.031 0-1.422 1.557-1.422 1.87V24.356c.002.018.028.257.096.604a69.899 69.899 0 0 0-5.293-.55c-.3-.975-1.002-2.331-2.265-2.331h-3.545c-1.252 0-1.953 1.334-2.257 2.306a70.15 70.15 0 0 0-5.311.523c.076-.374.105-.638.106-.656l.001-.003v-.235c0-.313-.39-1.87-1.423-1.87H11.18c-1.032 0-1.423 1.557-1.423 1.87v.238c.008.07.38 3.676 2.455 3.676.925 0 1.508-.72 1.875-1.52a27.643 27.643 0 0 0 5.954 1.69c.364.883 1.027 1.838 2.087 1.838h3.545c1.087 0 1.758-1.005 2.116-1.907a27.78 27.78 0 0 0 5.428-1.571h.471c.365.823.955 1.574 1.901 1.574 2.075 0 2.448-3.606 2.455-3.676v-.238c0-.312-.39-1.869-1.422-1.869"/>
    </g>
</svg>
