<svg xmlns="http://www.w3.org/2000/svg" width="48" height="48" viewBox="0 0 48 48">
    <g fill="#3F44E1" fill-rule="evenodd">
        <path d="M37.823 23.37l-5.993-6.244a.596.596 0 0 0-.867 0 .659.659 0 0 0 0 .904l5.57 5.803-5.57 5.804a.658.658 0 0 0 0 .903c.24.25.628.25.867 0l5.993-6.243a.652.652 0 0 0 .177-.464.65.65 0 0 0-.177-.462M11.468 23.833l5.57-5.803a.659.659 0 0 0 0-.904.596.596 0 0 0-.868 0l-5.992 6.245a.647.647 0 0 0-.178.462.649.649 0 0 0 .178.463l5.992 6.245c.24.25.628.25.868 0a.658.658 0 0 0 0-.904l-5.57-5.804zM26.921 16.369l-6.2 14.406a.634.634 0 0 0 .3.824l.028.013a.59.59 0 0 0 .79-.313l6.202-14.407a.635.635 0 0 0-.301-.825l-.028-.012a.588.588 0 0 0-.79.314"/>
    </g>
</svg>
