<svg xmlns="http://www.w3.org/2000/svg" xmlns:xlink="http://www.w3.org/1999/xlink" width="48" height="48" viewBox="0 0 48 48">
    <defs>
        <path id="a" d="M.098.318h19.001v12.696H.098z"/>
        <path id="c" d="M0 .167h20.76v19.17H0z"/>
    </defs>
    <g fill="none" fill-rule="evenodd">
        <g transform="translate(14.808 24.819)">
            <mask id="b" fill="#fff">
                <use xlink:href="#a"/>
            </mask>
            <path fill="#3F44E1" d="M16.058 9.894H2.498l1.846-3.338h10.51l1.845 3.338h-.64zm2.99 2.51l-.93-1.684-.458-.826-1.846-3.338-.456-.826-1.376-2.487-.29-.526L12.484.535a.428.428 0 0 0-.573-.167.408.408 0 0 0-.17.56l1.205 2.18.291.527 1.159 2.095H4.8L5.96 3.635l.291-.526L7.456.927a.407.407 0 0 0-.171-.56.428.428 0 0 0-.573.168L5.506 2.717l-.291.526L3.839 5.73l-.456.826-1.846 3.338-.457.826-.931 1.685a.408.408 0 0 0 .171.56.428.428 0 0 0 .573-.168l1.148-2.077H17.156l1.149 2.077c.11.201.367.276.572.168a.408.408 0 0 0 .171-.56z" mask="url(#b)"/>
        </g>
        <g transform="translate(14 10.227)">
            <mask id="d" fill="#fff">
                <use xlink:href="#c"/>
            </mask>
            <path fill="#3F44E1" d="M14.745.167H6.016C1.653.167 0 7.866 0 9.41v8.76c0 .645.535 1.168 1.196 1.168h18.369c.66 0 1.196-.523 1.196-1.168V9.41c0-1.544-1.653-9.243-6.016-9.243" mask="url(#d)"/>
        </g>
        <path fill="#FFF" d="M18.884 26.441c0 .72-.598 1.305-1.336 1.305-.738 0-1.336-.584-1.336-1.305 0-.72.598-1.304 1.336-1.304.738 0 1.336.584 1.336 1.304M32.549 26.441c0 .72-.598 1.305-1.336 1.305-.738 0-1.336-.584-1.336-1.305 0-.72.598-1.304 1.336-1.304.738 0 1.336.584 1.336 1.304M32.894 18.072c-.772-3.17-2.075-6.203-4.904-6.203h-7.22c-2.828 0-4.131 3.032-4.904 6.203-.109.448-.03 1.824-.03 2.27v.625c0 .584.49 1.062 1.087 1.062h14.915c.598 0 1.087-.478 1.087-1.062v-.624c0-.447.079-1.823-.03-2.27"/>
    </g>
</svg>
