<svg xmlns="http://www.w3.org/2000/svg" width="48" height="48" viewBox="0 0 48 48">
    <g fill="#3F44E1" fill-rule="evenodd">
        <g transform="translate(16 15)">
            <path d="M3.155 10A5.992 5.992 0 0 0 8 12.46c1.99 0 3.753-.969 4.845-2.46C14.763 11.55 16 13.998 16 16.753c0 4.686-16 4.686-16 0C0 13.998 1.237 11.55 3.155 10z"/>
            <circle cx="8" cy="6" r="6"/>
        </g>
        <g transform="translate(29 18)">
            <path d="M2.366 7.143C3.185 8.208 4.508 8.9 6 8.9s2.815-.692 3.634-1.757A6.072 6.072 0 0 1 12 11.966c0 3.348-12 3.348-12 0C0 10 .928 8.25 2.366 7.143z"/>
            <ellipse cx="6" cy="4.286" rx="4.5" ry="4.286"/>
        </g>
        <g transform="translate(7 18)">
            <path d="M2.366 7.143C3.185 8.208 4.508 8.9 6 8.9s2.815-.692 3.634-1.757A6.072 6.072 0 0 1 12 11.966c0 3.348-12 3.348-12 0C0 10 .928 8.25 2.366 7.143z"/>
            <ellipse cx="6" cy="4.286" rx="4.5" ry="4.286"/>
        </g>
    </g>
</svg>
