<svg xmlns="http://www.w3.org/2000/svg" xmlns:xlink="http://www.w3.org/1999/xlink" width="48" height="48" viewBox="0 0 48 48">
    <defs>
        <path id="a" d="M0 .038h29.843v26.48H0z"/>
        <path id="c" d="M.181.38H23.43v20.564H.181z"/>
    </defs>
    <g fill="none" fill-rule="evenodd">
        <g transform="translate(9 10.31)">
            <mask id="b" fill="#fff">
                <use xlink:href="#a"/>
            </mask>
            <path fill="#3F44E1" d="M6.251 25.985C3.606 25.698.97 24.815.146 22.302c-.286-.875-.092-2.727.076-3.81 1.23-7.92 1.595-9.322 1.595-9.322S7.768.993 14.643.115c5.167-.66 9.413 3.069 11.224 6.994 6.167 13.371 3.692 14.912 2.224 16.523-3.507 3.849-16.436 2.938-21.84 2.353" mask="url(#b)"/>
        </g>
        <g transform="translate(11.838 17.962)">
            <mask id="d" fill="#fff">
                <use xlink:href="#c"/>
            </mask>
            <path fill="#FFF" d="M11.805.38C5.385.38.181 6.177.181 6.177s1.705 14.767 11.624 14.767c9.92 0 11.624-14.767 11.624-14.767S18.225.379 11.805.379" mask="url(#d)"/>
        </g>
        <path fill="#3F44E1" d="M25.783 32.611s-.971 1.5-2.17 1.5c-1.198 0-2.17-1.5-2.17-1.5s.972.402 2.17.402c1.199 0 2.17-.402 2.17-.402M20.257 27.802c0 .551-.45.999-1.005.999a1.002 1.002 0 0 1-1.005-.999c0-.551.45-.998 1.005-.998.555 0 1.005.447 1.005.998M29.161 27.802c0 .551-.45.999-1.005.999a1.002 1.002 0 0 1-1.005-.999c0-.551.45-.998 1.005-.998.555 0 1.005.447 1.005.998"/>
        <path fill="#3F44E1" d="M17.528 23.91s-.596-1.912.394-4.385c0 0-.31 2.39.085 4.203 0 0 4.695-1.786 11.636-.2 0 0 .555-1.539.347-3.562 0 0 .585 2.117.264 3.762 4.412 1.895 5.013 4.074 5.013 4.074s1.658-.612 1.078-4.074c-1.264-7.546-6.362-12.474-10.39-13.312-7.02-1.461-12.57.784-15.137 9.064 0 0-.633 8.018.26 8.925 0 0 1.774-3.85 6.45-4.495"/>
    </g>
</svg>
