<svg xmlns="http://www.w3.org/2000/svg" width="48" height="48" viewBox="0 0 48 48">
    <g fill="none" fill-rule="evenodd">
        <path fill="#3F44E1" d="M16.29 26.75s-5.942.698-7.29 3.924c0 0 .923 3.617 4.756 4.542 0 0 4.12-5.268 4.103-7.523l-1.57-.942zM32.479 26.75s5.941.698 7.289 3.924c0 0-.923 3.617-4.756 4.542 0 0-4.12-5.268-4.103-7.523l1.57-.942z"/>
        <path fill="#FFF" d="M24.494 16.132c-6.293 0-11.396 5.59-11.396 5.59s1.672 14.232 11.396 14.232S35.89 21.722 35.89 21.722s-5.103-5.59-11.396-5.59"/>
        <path fill="#3F44E1" d="M26.592 30.464s-.953 1.374-2.127 1.374c-1.175 0-2.127-1.374-2.127-1.374s.952.369 2.127.369c1.174 0 2.127-.369 2.127-.369M13.997 25.765s14.584-3.868 16.912-5.62c0 0 2.269 4.568 4.099 5.762 0 0 4.311-8.005-1.827-12.58-6.404-4.775-27.131-2.93-19.184 12.438"/>
        <path fill="#3F44E1" d="M21.174 26.056c0 .506-.441.916-.985.916s-.985-.41-.985-.916c0-.505.44-.915.985-.915.544 0 .985.41.985.915M29.903 26.056c0 .506-.44.916-.985.916-.544 0-.985-.41-.985-.916 0-.505.441-.915.985-.915s.985.41.985.915M18.39 28.151a.166.166 0 1 1-.332 0 .166.166 0 0 1 .332 0M19.51 28.07a.166.166 0 1 1-.332 0 .166.166 0 0 1 .332 0M20.63 28.317a.166.166 0 1 1-.333 0 .166.166 0 0 1 .333 0M19.002 28.981a.166.166 0 1 1-.332 0 .166.166 0 0 1 .332 0M20.045 28.909a.166.166 0 1 1-.333-.001.166.166 0 0 1 .333 0M30.598 28.151a.166.166 0 1 0 .332 0 .166.166 0 0 0-.332 0M29.478 28.07a.166.166 0 1 0 .332 0 .166.166 0 0 0-.332 0M28.358 28.317a.166.166 0 1 0 .333 0 .166.166 0 0 0-.333 0M29.986 28.981a.166.166 0 1 0 .332 0 .166.166 0 0 0-.332 0M28.943 28.909a.166.166 0 1 0 .333-.001.166.166 0 0 0-.333 0"/>
    </g>
</svg>
