<svg xmlns="http://www.w3.org/2000/svg" xmlns:xlink="http://www.w3.org/1999/xlink" width="48" height="48" viewBox="0 0 48 48">
    <defs>
        <path id="a" d="M0 .222h25.676v18.374H0z"/>
    </defs>
    <g fill="none" fill-rule="evenodd">
        <g transform="translate(11 15.183)">
            <mask id="b" fill="#fff">
                <use xlink:href="#a"/>
            </mask>
            <path fill="#3F44E1" d="M25.38 9.868c-.664-5.036-.858-8.1-4.048-9.431-1.611-.673-4.892.448-8.494.448-3.602 0-6.883-1.121-8.494-.448C1.154 1.769.96 4.832.296 9.868c-.665 5.037-.272 7.742 1.817 8.605 2.088.864 4.793-3.07 6.455-4.51.944-.817 2.823-1.077 4.27-1.149 1.446.072 3.326.332 4.27 1.15 1.661 1.439 4.367 5.373 6.455 4.51 2.089-.864 2.481-3.569 1.817-8.606" mask="url(#b)"/>
        </g>
        <path fill="#FFF" d="M17.88 24.539a2.173 2.173 0 0 1-2.162-2.185c0-1.206.968-2.184 2.161-2.184 1.194 0 2.162.978 2.162 2.184a2.173 2.173 0 0 1-2.162 2.185m0-5.837c-1.996 0-3.614 1.635-3.614 3.652 0 2.017 1.618 3.653 3.614 3.653 1.996 0 3.614-1.636 3.614-3.653 0-2.017-1.618-3.652-3.614-3.652M30.942 20.07c0 .585-.47 1.06-1.05 1.06-.58 0-1.05-.475-1.05-1.06 0-.587.47-1.062 1.05-1.062.58 0 1.05.475 1.05 1.061M30.942 24.361c0 .587-.47 1.062-1.05 1.062-.58 0-1.05-.475-1.05-1.062 0-.586.47-1.061 1.05-1.061.58 0 1.05.475 1.05 1.061M32.016 23.277c-.58 0-1.05-.475-1.05-1.061 0-.587.47-1.062 1.05-1.062.58 0 1.05.475 1.05 1.062 0 .586-.47 1.06-1.05 1.06M27.769 23.277c-.58 0-1.05-.475-1.05-1.061 0-.587.47-1.062 1.05-1.062.58 0 1.05.475 1.05 1.062 0 .586-.47 1.06-1.05 1.06"/>
    </g>
</svg>
