<svg xmlns="http://www.w3.org/2000/svg" width="48" height="48" viewBox="0 0 48 48">
    <g fill="none" fill-rule="evenodd">
        <path fill="#FFF" d="M36.394 19.11c.18-.625-.06-1.332-.632-1.626a1.295 1.295 0 0 0-1.837.802l-1.889 6.516c-.039.136-.472-.016-.441-.12l2.583-8.954c.182-.625-.06-1.332-.631-1.626a1.296 1.296 0 0 0-1.837.803l-2.555 8.814c-.042.144-.491.009-.456-.11l2.54-8.762c.18-.626-.06-1.333-.632-1.627a1.296 1.296 0 0 0-1.837.803l-2.624 9.05c-.005.02.006-.017 0 0-.034.119-.497.031-.447-.141l2.052-7.08c.181-.624-.059-1.331-.631-1.625a1.295 1.295 0 0 0-1.837.802l-2.574 8.878c-.043.099-.215.648-.392 1.228-.186.61-.687.637-1.053.12l-.002-.003-1.865-3.17c-.281-.586-.929-.942-1.545-.765-.801.23-1.17 1.13-.821 1.854 0 0 2.004 4.507 2.763 6.112 1.046 2.135 1.81 4.793 4.826 5.697l1.518.454c3.58 1.074 5.896-1.238 7-5.049l3.256-11.276z"/>
        <path fill="#3F44E1" d="M29.038 16.007c0-.652-.427-1.26-1.058-1.378-.818-.152-1.539.492-1.539 1.298v6.793c0 .142-.457.12-.457.011l-.011-9.33c0-.652-.427-1.262-1.058-1.379-.819-.152-1.539.492-1.539 1.299v9.188c0 .15-.468.15-.468.025V13.4c0-.651-.428-1.26-1.058-1.378-.818-.152-1.539.492-1.539 1.299v9.435c0 .02 0-.019 0 0 0 .123-.468.172-.468-.008v-7.38c0-.652-.428-1.261-1.058-1.378-.819-.152-1.539.491-1.539 1.298v9.256c-.014.107-.026.683-.034 1.29-.01.639-.483.809-.978.418l-.002-.002-2.67-2.505c-.433-.48-1.153-.636-1.696-.289a1.337 1.337 0 0 0-.272 2.014s3.176 3.747 4.35 5.068c1.597 1.747 3.07 4.077 6.214 4.077h1.58c3.735 0 5.312-2.883 5.312-6.856l-.012-11.752zM37.024 22.583s1.857 1.87 1.55 3.79c-.306 1.92-2.659 3.163-2.659 3.163s1.643-1.349 1.95-3.268c.306-1.92-.84-3.685-.84-3.685M39.328 22.894s1.856 1.87 1.55 3.79c-.307 1.92-2.66 3.163-2.66 3.163s1.644-1.349 1.95-3.269c.307-1.92-.84-3.684-.84-3.684M12.465 28.706s-2.547-.808-3.21-2.643c-.662-1.834.812-4 .812-4S9.271 24 9.934 25.835c.662 1.835 2.531 2.872 2.531 2.872M10.38 29.536s-2.547-.808-3.209-2.642c-.662-1.835.812-4 .812-4s-.796 1.936-.134 3.77c.663 1.835 2.532 2.872 2.532 2.872"/>
    </g>
</svg>
