<svg xmlns="http://www.w3.org/2000/svg" xmlns:xlink="http://www.w3.org/1999/xlink" width="48" height="48" viewBox="0 0 48 48">
    <defs>
        <path id="a" d="M0 .088h33.62v9.507H0z"/>
        <path id="c" d="M0 .207h33.62v11.668H0z"/>
        <path id="e" d="M0 .38h33.62v6.556H0z"/>
    </defs>
    <g fill="none" fill-rule="evenodd">
        <g transform="translate(7 18.371)">
            <mask id="b" fill="#fff">
                <use xlink:href="#a"/>
            </mask>
            <path fill="#FFF" d="M33.62 2.582s-7.526 7.013-16.81 7.013C7.526 9.595 0 2.582 0 2.582S7.526.088 16.81.088c9.284 0 16.81 2.494 16.81 2.494" mask="url(#b)"/>
        </g>
        <g transform="translate(7 20.746)">
            <mask id="d" fill="#fff">
                <use xlink:href="#c"/>
            </mask>
            <path fill="#3F44E1" d="M33.62.207s-7.526 11.668-16.81 11.668C7.526 11.875 0 .207 0 .207s7.526 5.27 16.81 5.27c9.284 0 16.81-5.27 16.81-5.27" mask="url(#d)"/>
        </g>
        <g transform="translate(7 14.017)">
            <mask id="f" fill="#fff">
                <use xlink:href="#e"/>
            </mask>
            <path fill="#3F44E1" d="M33.62 6.936S28.375 2.639 21.242.473c-1.412-.43-2.898.756-4.432.756-1.534 0-3.02-1.185-4.431-.756C5.245 2.639-.001 6.936-.001 6.936s7.527-.752 16.811-.752c9.284 0 16.81.752 16.81.752" mask="url(#f)"/>
        </g>
    </g>
</svg>
