<svg xmlns="http://www.w3.org/2000/svg" xmlns:xlink="http://www.w3.org/1999/xlink" width="48" height="48" viewBox="0 0 48 48">
    <defs>
        <path id="a" d="M0 .171h27.792V14.45H0z"/>
    </defs>
    <g fill="none" fill-rule="evenodd">
        <g transform="translate(10 16.234)">
            <mask id="b" fill="#fff">
                <use xlink:href="#a"/>
            </mask>
            <path fill="#3F44E1" d="M27.773 8.702C27.68 7.608 26.788 6.74 25.7 6.74h-.924c-.664 0-1.262-.42-1.495-1.058-.993-2.718-2.257-5.51-4.474-5.51h-8.712c-2.216 0-3.48 2.792-4.473 5.51A1.597 1.597 0 0 1 4.126 6.74H2.093c-1.089 0-1.98.868-2.074 1.962h-.02v4.307c0 .795.63 1.441 1.406 1.441H4.1a3.415 3.415 0 0 1-.028-.414c0-1.835 1.45-3.323 3.238-3.323s3.237 1.488 3.237 3.323c0 .14-.01.278-.027.414h7.896a3.415 3.415 0 0 1-.027-.414c0-1.835 1.449-3.323 3.237-3.323s3.237 1.488 3.237 3.323c0 .14-.01.278-.027.414h1.551c.776 0 1.405-.646 1.405-1.441V8.702h-.019z" mask="url(#b)"/>
        </g>
        <path fill="#3F44E1" d="M34.067 30.27c0-1.414-1.116-2.56-2.493-2.56-1.378 0-2.494 1.146-2.494 2.56 0 1.413 1.116 2.559 2.494 2.559 1.377 0 2.493-1.146 2.493-2.56M19.741 30.27c0-1.414-1.116-2.56-2.494-2.56-1.377 0-2.493 1.146-2.493 2.56 0 1.413 1.116 2.559 2.493 2.559 1.378 0 2.494-1.146 2.494-2.56"/>
        <path fill="#FFF" d="M20.514 17.493c-1.965 0-2.87 2.215-3.407 4.53-.113.485.241.95.726.95h6.235V18.11a.608.608 0 0 0-.6-.616h-2.954zM28.609 17.493c1.965 0 2.87 2.215 3.407 4.53.112.485-.241.95-.726.95h-6.235V18.11c0-.34.269-.616.6-.616h2.954z"/>
    </g>
</svg>
