<svg xmlns="http://www.w3.org/2000/svg" xmlns:xlink="http://www.w3.org/1999/xlink" width="48" height="48" viewBox="0 0 48 48">
    <defs>
        <path id="a" d="M.19.207h24.06V24H.19z"/>
        <path id="c" d="M0 .198h25.807v15.85H0z"/>
    </defs>
    <g fill="none" fill-rule="evenodd">
        <g transform="translate(11.413 14.802)">
            <mask id="b" fill="#fff">
                <use xlink:href="#a"/>
            </mask>
            <path fill="#FFF" d="M12.22.207C5.576.207.19 6.916.19 6.916S1.954 24 12.22 24 24.25 6.916 24.25 6.916 18.864.207 12.22.207" mask="url(#b)"/>
        </g>
        <path fill="#3F44E1" d="M26.008 33.113s-.989 1.488-2.209 1.488c-1.22 0-2.209-1.488-2.209-1.488s.99.399 2.21.399 2.208-.4 2.208-.4"/>
        <g transform="translate(11 9.202)">
            <mask id="d" fill="#fff">
                <use xlink:href="#c"/>
            </mask>
            <path fill="#3F44E1" d="M.769 12.516s16.508 2.483 19.109-3.085c0 0 2.428 5.323 4.328 6.617 0 0 4.822-10.66-2.272-13.083C13.89.218-3.9-4.545.769 12.516" mask="url(#d)"/>
        </g>
        <path fill="#3F44E1" d="M20.382 25.763c0 .548-.458.992-1.023.992s-1.023-.444-1.023-.992c0-.547.458-.991 1.023-.991s1.023.444 1.023.991M29.447 25.763c0 .548-.458.992-1.023.992s-1.023-.444-1.023-.992c0-.547.458-.991 1.023-.991s1.023.444 1.023.991"/>
    </g>
</svg>
