<svg xmlns="http://www.w3.org/2000/svg" xmlns:xlink="http://www.w3.org/1999/xlink" width="48" height="48" viewBox="0 0 48 48">
    <defs>
        <path id="a" d="M0 .198h30.721v13.764H0z"/>
    </defs>
    <g fill="none" fill-rule="evenodd">
        <path fill="#FFF" d="M33.169 11.803c-7.823-2.775-25.093-7.58-20.685 9.525l-.125.155s1.722 17.315 11.736 17.315c7.135 0 10.06-8.786 11.152-13.841.047.037.093.074.138.106 0 0 4.705-10.805-2.216-13.26"/>
        <path fill="#3F44E1" d="M26.674 31.713s-.965 1.126-2.155 1.126-2.154-1.126-2.154-1.126.964.528 2.154.528 2.155-.528 2.155-.528"/>
        <g transform="translate(9 14.879)">
            <mask id="b" fill="#fff">
                <use xlink:href="#a"/>
            </mask>
            <path fill="#3F44E1" d="M25.89.198H4.831C2.174.198 0 2.387 0 5.063v4.033c0 2.676 2.174 4.864 4.831 4.864h6.361c.17 0 1.38.11 1.38-1.486 0-1.524.817-1.734 1.814-1.734h1.95c.997 0 1.813.21 1.813 1.734 0 1.596 1.21 1.486 1.38 1.486h6.361c2.657 0 4.831-2.188 4.831-4.864V5.063c0-2.676-2.174-4.865-4.83-4.865" mask="url(#b)"/>
        </g>
    </g>
</svg>
