<svg xmlns="http://www.w3.org/2000/svg" xmlns:xlink="http://www.w3.org/1999/xlink" width="48" height="48" viewBox="0 0 48 48">
    <defs>
        <path id="a" d="M.141.334h16.871V7.2H.141z"/>
    </defs>
    <g fill="none" fill-rule="evenodd">
        <g transform="translate(15.081 24.47)">
            <mask id="b" fill="#fff">
                <use xlink:href="#a"/>
            </mask>
            <path fill="#3F44E1" d="M8.79 3.339c-.072 0-.143-.011-.213-.019a2.649 2.649 0 0 1-.685-.142L.141.334v4.473C.141 6.129 3.917 7.2 8.577 7.2c4.659 0 8.435-1.071 8.435-2.393V.505L9.727 3.178c-.302.11-.62.163-.937.16" mask="url(#b)"/>
        </g>
        <path fill="#3F44E1" d="M38.61 21.226L24.81 16.163a2.665 2.665 0 0 0-1.835 0L9.172 21.226a.258.258 0 0 0 0 .487l13.802 5.064a2.665 2.665 0 0 0 1.835 0l13.802-5.064a.259.259 0 0 0 0-.487M35.764 27.14l-.018.007v-3.432l-.881.323v3.451c-.134.194-1.06 1.565-1.06 2.406 0 1.118 1.395 1.118 1.5 1.118.106 0 1.5 0 1.5-1.118 0-.907-1.041-2.754-1.041-2.754"/>
    </g>
</svg>
