<svg xmlns="http://www.w3.org/2000/svg" xmlns:xlink="http://www.w3.org/1999/xlink" width="48" height="48" viewBox="0 0 48 48">
    <defs>
        <path id="a" d="M0 .254h36.869V14.28H0z"/>
    </defs>
    <g fill="none" fill-rule="evenodd">
        <path fill="#FFF" d="M24.71 13.106c-11.695.004-11.186 9.3-11.186 9.3s.452 17.198 11.186 17.34c12.497.163 10.525-17.367 10.525-17.367s.775-9.277-10.525-9.273"/>
        <path fill="#3F44E1" d="M27.024 37.47s-.963.912-2.152.912-2.152-.912-2.152-.912.963.244 2.152.244 2.152-.244 2.152-.244M29.542 32.919s-.747-.088-1.48-1.065c-1.268-1.687-3.003-.992-3.627-.658-.626-.334-2.36-1.03-3.628.658-.733.977-1.48 1.065-1.48 1.065s3.931.317 5.108-.658c1.176.975 5.107.658 5.107.658"/>
        <g transform="translate(6 9.144)">
            <mask id="b" fill="#fff">
                <use xlink:href="#a"/>
            </mask>
            <path fill="#3F44E1" d="M29.48 9.836c-.25-2.125-.906-5.236-2.167-7.092-1.385-2.039-3.075-.631-5.247-.686-3.554-.09-8.2-3.065-10.605-1.18-1.459 1.144-3.478 4.095-3.974 8.948C2.947 10.276 0 10.997 0 11.812c0 1.362 8.254 2.468 18.435 2.468 10.18 0 18.434-1.106 18.434-2.468 0-.809-2.903-1.526-7.388-1.976" mask="url(#b)"/>
        </g>
        <path stroke="#3F44E1" stroke-width=".5" d="M23.014 26.725c0 1.375-1.129 2.49-2.52 2.49-1.393 0-2.52-1.115-2.52-2.49 0-1.376 1.127-2.491 2.52-2.491 1.391 0 2.52 1.115 2.52 2.49zM30.896 26.751c0 1.376-1.129 2.49-2.52 2.49-1.393 0-2.52-1.114-2.52-2.49 0-1.375 1.127-2.49 2.52-2.49 1.391 0 2.52 1.115 2.52 2.49z"/>
        <path stroke="#3F44E1" stroke-width=".5" d="M22.982 26.583c.447-.323.975-.51 1.54-.51.48 0 .933.135 1.333.374"/>
    </g>
</svg>
