<svg xmlns="http://www.w3.org/2000/svg" width="48" height="48" viewBox="0 0 48 48">
    <g fill="none" fill-rule="evenodd">
        <path fill="#FFF" d="M23.147 14.685c-6.39 0-11.568 6.799-11.568 6.799s1.697 17.315 11.568 17.315c9.87 0 11.567-17.315 11.567-17.315s-5.178-6.8-11.567-6.8"/>
        <path fill="#3F44E1" d="M11.74 21.484S27.612 24 30.112 18.357c0 0 2.335 5.395 4.162 6.707 0 0 4.637-10.805-2.185-13.26-7.734-2.783-24.84-7.611-20.35 9.68M20.021 25.584a.995.995 0 0 1-.983 1.005.995.995 0 0 1-.984-1.005c0-.555.44-1.005.984-1.005.543 0 .983.45.983 1.005M28.737 25.584a.995.995 0 0 1-.983 1.005.995.995 0 0 1-.984-1.005c0-.555.44-1.005.984-1.005.543 0 .983.45.983 1.005M28.346 31.813s-.736-.09-1.46-1.086c-1.25-1.722-2.963-1.012-3.58-.672-.616-.34-2.327-1.05-3.578.672-.724.996-1.46 1.086-1.46 1.086s3.878.323 5.039-.671c1.16.994 5.04.67 5.04.67"/>
    </g>
</svg>
