<svg xmlns="http://www.w3.org/2000/svg" xmlns:xlink="http://www.w3.org/1999/xlink" width="360" height="230" viewBox="0 0 360 230">
    <defs>
        <radialGradient id="a" cx="91.07%" cy="-5.766%" r="154.54%" fx="91.07%" fy="-5.766%" gradientTransform="matrix(-.4298 .68439 -.40343 -.72912 1.279 -.723)">
            <stop offset="0%" stop-color="#575CFD"/>
            <stop offset="49.673%" stop-color="#5822E1"/>
            <stop offset="100%" stop-color="#7E4BBA"/>
        </radialGradient>
        <radialGradient id="b" cx="91.07%" cy="-5.766%" r="155.167%" fx="91.07%" fy="-5.766%" gradientTransform="scale(-.58502 -1) rotate(-42.971 -.177 3.134)">
            <stop offset="0%" stop-color="#575CFD"/>
            <stop offset="100%" stop-color="#5C27C1"/>
        </radialGradient>
        <radialGradient id="c" cx="91.07%" cy="-5.766%" r="155.032%" fx="91.07%" fy="-5.766%" gradientTransform="scale(-.58597 -1) rotate(-43.017 -.175 3.127)">
            <stop offset="0%" stop-color="#9A57FD"/>
            <stop offset="94.38%" stop-color="#392AC4"/>
            <stop offset="100%" stop-color="#3727C1"/>
        </radialGradient>
        <radialGradient id="d" cx="100%" cy="56.655%" r="280.971%" fx="100%" fy="56.655%" gradientTransform="scale(-.3159 -1) rotate(11.633 4.479 -20.446)">
            <stop offset="0%" stop-color="#6B32D6"/>
            <stop offset="90.81%" stop-color="#3528C1"/>
            <stop offset="100%" stop-color="#3727C1"/>
        </radialGradient>
        <linearGradient id="e" x1="96.042%" x2="9.102%" y1="31.464%" y2="39.75%">
            <stop offset="0%" stop-color="#7440C3"/>
            <stop offset="100%" stop-color="#565CFF"/>
        </linearGradient>
        <linearGradient id="f" x1="5.721%" x2="90.683%" y1="3.235%" y2="91.917%">
            <stop offset="0%" stop-color="#7E4BBA"/>
            <stop offset="100%" stop-color="#3728C1"/>
        </linearGradient>
        <text id="h" fill="#FFF" font-family="AppleSDGothicNeo-Regular, Apple SD Gothic Neo" font-size="28">
            <tspan x="28" y="143">콘텐츠</tspan> <tspan x="100.66" y="143" font-family="NotoSans, Noto Sans"> </tspan> <tspan x="107.933" y="143">가이드</tspan>
        </text>
        <filter id="g" width="117%" height="168.4%" x="-8.5%" y="-28.9%" filterUnits="objectBoundingBox">
            <feOffset dy="2" in="SourceAlpha" result="shadowOffsetOuter1"/>
            <feGaussianBlur in="shadowOffsetOuter1" result="shadowBlurOuter1" stdDeviation="4"/>
            <feColorMatrix in="shadowBlurOuter1" values="0 0 0 0 0.117647059 0 0 0 0 0.109803922 0 0 0 0 0.203921569 0 0 0 0.3 0"/>
        </filter>
        <text id="j" fill="#FFF" font-family="AppleSDGothicNeo-Bold, Apple SD Gothic Neo" font-size="26" font-weight="bold">
            <tspan x="28" y="103">차세대</tspan> <tspan x="95.47" y="103" font-family="NotoSans-Bold, Noto Sans"> </tspan> <tspan x="102.224" y="103">이동</tspan> <tspan x="147.204" y="103" font-family="NotoSans-Bold, Noto Sans"> </tspan> <tspan x="153.958" y="103">공간</tspan>
        </text>
        <filter id="i" width="115.2%" height="172.2%" x="-7.6%" y="-30.6%" filterUnits="objectBoundingBox">
            <feOffset dy="2" in="SourceAlpha" result="shadowOffsetOuter1"/>
            <feGaussianBlur in="shadowOffsetOuter1" result="shadowBlurOuter1" stdDeviation="4"/>
            <feColorMatrix in="shadowBlurOuter1" values="0 0 0 0 0.117647059 0 0 0 0 0.109803922 0 0 0 0 0.203921569 0 0 0 0.3 0"/>
        </filter>
    </defs>
    <g fill="none" fill-rule="evenodd">
        <path fill="url(#a)" d="M0 0v186.271l239.86 25.939L259 192.817l58.835 9.838L360 206.132V0z"/>
        <path d="M0 0h360v236H0z"/>
        <path d="M0 0h360v56H0z"/>
        <path fill="#7967F8" d="M304.26 80.824c0 2.663-4.239 4.823-9.467 4.823-5.228 0-9.466-2.16-9.466-4.823 0-2.665 4.238-4.824 9.466-4.824 5.228 0 9.467 2.16 9.467 4.824M296.371 94.49c0 2.22-3.532 4.019-7.889 4.019s-7.888-1.8-7.888-4.02c0-2.22 3.531-4.019 7.888-4.019 4.357 0 7.889 1.8 7.889 4.02M335.814 88.059c0 2.663-4.238 4.823-9.466 4.823-5.229 0-9.467-2.16-9.467-4.823 0-2.664 4.238-4.824 9.467-4.824 5.228 0 9.466 2.16 9.466 4.824M321.614 102.127c0 1.997-3.178 3.617-7.1 3.617-3.92 0-7.099-1.62-7.099-3.617 0-1.998 3.179-3.618 7.1-3.618 3.92 0 7.1 1.62 7.1 3.618"/>
        <path fill="url(#b)" d="M47.923 15.439v-1.147c0-.93-.61-1.781-1.51-1.985-1.266-.286-2.4.69-2.4 1.919v1.28a2.188 2.188 0 0 0-.392.473s-11.134.617-15.528-.484c-4.395-1.101-11.27-5.03-11.27-5.03.02-.118.033-.238.033-.36 0-.662-.3-1.256-.77-1.653V6.686c0-.85-.558-1.63-1.381-1.817a1.799 1.799 0 0 0-2.198 1.757v1.617a2.162 2.162 0 0 0-1.026 2.285c.197 1.024 1.137 1.733 2.172 1.733h.304s3.965 4.397 3.169 7.321c-.416 1.529-7.316 2.69-7.316 2.69v-1.974c0-.674-.548-1.225-1.217-1.225h-.514c-.67 0-1.217.551-1.217 1.225v2.22a1.574 1.574 0 0 0 .818 2.912h.827c.48 0 1.194-.57 1.194-.57s11.7.046 16.656 1.187c4.956 1.14 5.87 2.394 5.87 2.394.13.737.769 1.303 1.536 1.303h.762c.75 0 1.441-.501 1.595-1.24a1.577 1.577 0 0 0-1.53-1.912h-.49s-.671-1.702-.704-2.777c-.032-1.074 10.263-5.513 10.263-5.513s1.04.964 1.781.964h1.063c1.05 0 1.994-.73 2.177-1.77a2.162 2.162 0 0 0-.757-2.057" transform="translate(280 76)"/>
        <path fill="#6B32D6" d="M0 174v12.8l255.136 27.477z"/>
        <path fill="#4536D9" d="M360.136 8v39L52 81.277zM360.136 202.277v-28.888L134 148z" opacity=".209"/>
        <path fill="#5F2ED1" d="M360.122 181.958v27.33L121 167z"/>
        <path fill="#7E4BBA" d="M0 162v-6l242.893 58.267z"/>
        <g opacity=".392">
            <path fill="#676CF8" d="M167.239 30.537c0 1.954 3.102 3.537 6.93 3.537s6.93-1.583 6.93-3.537c0-1.953-3.102-3.537-6.93-3.537s-6.93 1.584-6.93 3.537M173.014 40.56c0 1.627 2.586 2.947 5.776 2.947s5.775-1.32 5.775-2.948-2.585-2.948-5.775-2.948c-3.19 0-5.776 1.32-5.776 2.948M144.136 35.843c0 1.953 3.103 3.537 6.93 3.537 3.829 0 6.932-1.584 6.932-3.537 0-1.953-3.103-3.537-6.931-3.537s-6.93 1.584-6.93 3.537M154.532 46.16c0 1.464 2.327 2.652 5.199 2.652 2.87 0 5.197-1.188 5.197-2.652 0-1.466-2.327-2.653-5.197-2.653-2.872 0-5.199 1.187-5.199 2.653"/>
            <path fill="url(#c)" d="M35.086 11.322v-.842c0-.68-.446-1.306-1.105-1.455a1.438 1.438 0 0 0-1.757 1.407v.94c-.111.1-.208.217-.287.346 0 0-8.152.452-11.37-.355-3.216-.807-8.25-3.69-8.25-3.69a1.587 1.587 0 0 0-.54-1.476V4.904c0-.623-.408-1.195-1.01-1.332a1.317 1.317 0 0 0-1.61 1.288v1.186c-.547.323-.887.97-.751 1.676.144.75.832 1.27 1.59 1.27h.223s2.903 3.225 2.32 5.37c-.305 1.12-5.357 1.972-5.357 1.972v-1.447a.898.898 0 0 0-.89-.9h-.377c-.49 0-.891.405-.891.9v1.627a1.154 1.154 0 0 0 .599 2.135h.605c.352 0 .874-.418.874-.418s8.566.034 12.195.871c3.629.836 4.297 1.756 4.297 1.756.095.54.564.955 1.125.955h.558c.55 0 1.055-.367 1.168-.91a1.156 1.156 0 0 0-1.12-1.4h-.358s-.492-1.25-.516-2.037c-.023-.789 7.513-4.044 7.513-4.044s.762.707 1.305.707h.778c.768 0 1.46-.535 1.594-1.298a1.587 1.587 0 0 0-.555-1.508" transform="matrix(-1 0 0 1 185 27)"/>
        </g>
        <g>
            <path fill="url(#d)" d="M161.829 4.148c-26.3 2.144-50.851 3.852-55.757 2.144-3.271-1.14-.96-3.188 6.93-6.146-33.61 2.356-58.187 5.922-73.732 10.7-3.221.991-6.72 2.817-10.257 5.235C35.48 19.007 46.635 22.865 62.397 21c0 0-3.858 23.486-10.397 26.887-6.539 3.4-30.584 11.445-50.818 3.4C-1.383 59.765.016 67.165 8.305 70.53c17.925 7.278 66.95-.827 147.077-24.314A2459.383 2459.383 0 0 0 231 8L63.518 45.2s6.623-9.85 6.908-11.903c.653-4.691 3.55-7.854-3.661-12.585 0 0 77.057-13.101 95.064-16.564z" transform="matrix(-1 0 0 1 280 156)"/>
            <path fill="#565CFF" d="M217.172 177c9.972.263 21.223-1.39 33.752-4.96 15.22 8.262 24.518 20.012 27.894 35.248-18.007 9-48.81.241-52.721-2.787-4.583-3.22-7.067-15.103-8.183-22.155-.519-3.281-.742-5.516-.742-5.346z"/>
            <path fill="url(#e)" d="M61.257 47.25c67.254-15.09 105.2-24.402 113.838-27.939 12.958-5.305-6.737-14.347-13.403-15.163-18.035 3.408-94.97 16.346-94.97 16.346 1.094 12.476-.728 21.395-5.465 26.756z" transform="matrix(-1 0 0 1 280 156)"/>
        </g>
        <path fill="url(#f)" d="M40.364 160.13c-18.762-4.284-39.107-3.714 11.518 17.1 33.75 13.875 73.628 26.15 119.637 36.823-74.928-33.094-118.646-51.068-131.155-53.924z"/>
        <g fill="#FFF">
            <use filter="url(#g)" xlink:href="#h"/>
            <use xlink:href="#h"/>
        </g>
        <g fill="#FFF">
            <use filter="url(#i)" xlink:href="#j"/>
            <use xlink:href="#j"/>
        </g>
    </g>
</svg>
